REM DIRINDEX 1\2\4\18,1\2\4\19,1\2\5\20,1\2\5\21,1\2\6\22,1\2\6\23,1\2\7\24,1\2\8\25,1\2\9\26,1\2\10\27,1\2\10\28,1\3\11\29,1\3\11\30,1\3\11\31,1\3\11\32,1\3\12\33,1\3\12\34,1\3\12\35,1\3\12\36,1\3\13\37,1\3\13\38,1\3\13\39,1\3\13\40,1\3\14\41,1\3\14\42,1\3\15\43,1\3\15\44,1\3\16\45,1\3\16\46,1\3\17\47,1\3\17\48,1\3\17\49,1\3\17\50
REM DIRNAME cjc135,folder01,folder02,folder03,folder04,folder05,folder06,folder07,folder08,folder09,folder10,folder11,folder12,folder13,folder14,folder15,folder16,folder17,folder18,folder19,folder20,folder21,folder22,folder23,folder24,folder25,folder26,folder27,folder28,folder29,folder30,folder31,folder32,folder33,folder34,folder35,folder36,folder37,folder38,folder39,folder40,folder41,folder42,folder43,folder44,folder45,folder46,folder47,folder48,folder49
TITLE ""
FILE "13.mp3" MP3
  TRACK 01 AUDIO
    TITLE "0:"
    INDEX 01 00:00:00
  TRACK 02 AUDIO
    TITLE "29:cjc135_6248"
    INDEX 01 00:00:15
  TRACK 03 AUDIO
    TITLE "0:"
    INDEX 01 00:01:42
  TRACK 04 AUDIO
    TITLE "30:cjc135_6249"
    INDEX 01 00:02:18
  TRACK 05 AUDIO
    TITLE "0:"
    INDEX 01 00:04:19
  TRACK 06 AUDIO
    TITLE "31:cjc135_6250"
    INDEX 01 00:04:42
  TRACK 07 AUDIO
    TITLE "0:"
    INDEX 01 00:06:67
  TRACK 08 AUDIO
    TITLE "32:cjc135_6251"
    INDEX 01 00:07:17
  TRACK 09 AUDIO
    TITLE "0:"
    INDEX 01 00:09:42
  TRACK 10 AUDIO
    TITLE "29:cjc135_6252"
    INDEX 01 00:10:43
  TRACK 11 AUDIO
    TITLE "0:"
    INDEX 01 00:11:64
  TRACK 12 AUDIO
    TITLE "30:cjc135_6253"
    INDEX 01 00:12:38
  TRACK 13 AUDIO
    TITLE "0:"
    INDEX 01 00:14:43
  TRACK 14 AUDIO
    TITLE "31:cjc135_6254"
    INDEX 01 00:14:70
  TRACK 15 AUDIO
    TITLE "0:"
    INDEX 01 00:17:10
  TRACK 16 AUDIO
    TITLE "32:cjc135_6255"
    INDEX 01 00:17:37
  TRACK 17 AUDIO
    TITLE "0:"
    INDEX 01 00:19:54
  TRACK 18 AUDIO
    TITLE "29:cjc135_6256"
    INDEX 01 00:20:55
  TRACK 19 AUDIO
    TITLE "0:"
    INDEX 01 00:21:64
  TRACK 20 AUDIO
    TITLE "30:cjc135_6257"
    INDEX 01 00:22:40
  TRACK 21 AUDIO
    TITLE "0:"
    INDEX 01 00:24:29
  TRACK 22 AUDIO
    TITLE "31:cjc135_6258"
    INDEX 01 00:24:55
  TRACK 23 AUDIO
    TITLE "0:"
    INDEX 01 00:26:73
  TRACK 24 AUDIO
    TITLE "32:cjc135_6259"
    INDEX 01 00:27:22
  TRACK 25 AUDIO
    TITLE "0:"
    INDEX 01 00:29:40
  TRACK 26 AUDIO
    TITLE "29:cjc135_6260"
    INDEX 01 00:30:40
  TRACK 27 AUDIO
    TITLE "0:"
    INDEX 01 00:31:47
  TRACK 28 AUDIO
    TITLE "30:cjc135_6261"
    INDEX 01 00:32:23
  TRACK 29 AUDIO
    TITLE "0:"
    INDEX 01 00:34:16
  TRACK 30 AUDIO
    TITLE "31:cjc135_6262"
    INDEX 01 00:34:43
  TRACK 31 AUDIO
    TITLE "0:"
    INDEX 01 00:36:31
  TRACK 32 AUDIO
    TITLE "32:cjc135_6263"
    INDEX 01 00:36:60
  TRACK 33 AUDIO
    TITLE "0:"
    INDEX 01 00:38:47
  TRACK 34 AUDIO
    TITLE "29:cjc135_6264"
    INDEX 01 00:39:47
  TRACK 35 AUDIO
    TITLE "0:"
    INDEX 01 00:40:60
  TRACK 36 AUDIO
    TITLE "30:cjc135_6265"
    INDEX 01 00:41:34
  TRACK 37 AUDIO
    TITLE "0:"
    INDEX 01 00:42:61
  TRACK 38 AUDIO
    TITLE "31:cjc135_6266"
    INDEX 01 00:43:13
  TRACK 39 AUDIO
    TITLE "0:"
    INDEX 01 00:44:65
  TRACK 40 AUDIO
    TITLE "32:cjc135_6267"
    INDEX 01 00:45:14
  TRACK 41 AUDIO
    TITLE "0:"
    INDEX 01 00:46:68
  TRACK 42 AUDIO
    TITLE "29:cjc135_6268"
    INDEX 01 00:47:68
  TRACK 43 AUDIO
    TITLE "0:"
    INDEX 01 00:48:73
  TRACK 44 AUDIO
    TITLE "30:cjc135_6269"
    INDEX 01 00:49:51
  TRACK 45 AUDIO
    TITLE "0:"
    INDEX 01 00:52:14
  TRACK 46 AUDIO
    TITLE "31:cjc135_6270"
    INDEX 01 00:52:39
  TRACK 47 AUDIO
    TITLE "0:"
    INDEX 01 00:54:68
  TRACK 48 AUDIO
    TITLE "32:cjc135_6271"
    INDEX 01 00:55:20
  TRACK 49 AUDIO
    TITLE "0:"
    INDEX 01 00:57:50
  TRACK 50 AUDIO
    TITLE "29:cjc135_6272"
    INDEX 01 00:58:50
  TRACK 51 AUDIO
    TITLE "0:"
    INDEX 01 00:59:65
  TRACK 52 AUDIO
    TITLE "30:cjc135_6273"
    INDEX 01 01:00:39
  TRACK 53 AUDIO
    TITLE "0:"
    INDEX 01 01:03:55
  TRACK 54 AUDIO
    TITLE "31:cjc135_6274"
    INDEX 01 01:04:05
  TRACK 55 AUDIO
    TITLE "0:"
    INDEX 01 01:06:47
  TRACK 56 AUDIO
    TITLE "32:cjc135_6275"
    INDEX 01 01:06:73
  TRACK 57 AUDIO
    TITLE "0:"
    INDEX 01 01:09:40
  TRACK 58 AUDIO
    TITLE "29:cjc135_6276"
    INDEX 01 01:10:39
  TRACK 59 AUDIO
    TITLE "0:"
    INDEX 01 01:11:43
  TRACK 60 AUDIO
    TITLE "30:cjc135_6277"
    INDEX 01 01:12:21
  TRACK 61 AUDIO
    TITLE "0:"
    INDEX 01 01:14:02
  TRACK 62 AUDIO
    TITLE "31:cjc135_6278"
    INDEX 01 01:14:27
  TRACK 63 AUDIO
    TITLE "0:"
    INDEX 01 01:16:22
  TRACK 64 AUDIO
    TITLE "32:cjc135_6279"
    INDEX 01 01:16:48
  TRACK 65 AUDIO
    TITLE "0:"
    INDEX 01 01:18:41
  TRACK 66 AUDIO
    TITLE "29:cjc135_6280"
    INDEX 01 01:19:42
  TRACK 67 AUDIO
    TITLE "0:"
    INDEX 01 01:20:61
  TRACK 68 AUDIO
    TITLE "30:cjc135_6281"
    INDEX 01 01:21:37
  TRACK 69 AUDIO
    TITLE "0:"
    INDEX 01 01:24:37
  TRACK 70 AUDIO
    TITLE "31:cjc135_6282"
    INDEX 01 01:24:65
  TRACK 71 AUDIO
    TITLE "0:"
    INDEX 01 01:28:10
  TRACK 72 AUDIO
    TITLE "32:cjc135_6283"
    INDEX 01 01:28:35
  TRACK 73 AUDIO
    TITLE "0:"
    INDEX 01 01:31:57
  TRACK 74 AUDIO
    TITLE "29:cjc135_6284"
    INDEX 01 01:32:55
  TRACK 75 AUDIO
    TITLE "0:"
    INDEX 01 01:33:60
  TRACK 76 AUDIO
    TITLE "30:cjc135_6285"
    INDEX 01 01:34:34
  TRACK 77 AUDIO
    TITLE "0:"
    INDEX 01 01:37:13
  TRACK 78 AUDIO
    TITLE "31:cjc135_6286"
    INDEX 01 01:37:40
  TRACK 79 AUDIO
    TITLE "0:"
    INDEX 01 01:39:49
  TRACK 80 AUDIO
    TITLE "32:cjc135_6287"
    INDEX 01 01:40:05
  TRACK 81 AUDIO
    TITLE "0:"
    INDEX 01 01:42:14
  TRACK 82 AUDIO
    TITLE "29:cjc135_6288"
    INDEX 01 01:43:19
  TRACK 83 AUDIO
    TITLE "0:"
    INDEX 01 01:44:28
  TRACK 84 AUDIO
    TITLE "30:cjc135_6289"
    INDEX 01 01:45:02
  TRACK 85 AUDIO
    TITLE "0:"
    INDEX 01 01:48:44
  TRACK 86 AUDIO
    TITLE "31:cjc135_6290"
    INDEX 01 01:48:71
  TRACK 87 AUDIO
    TITLE "0:"
    INDEX 01 01:51:32
  TRACK 88 AUDIO
    TITLE "32:cjc135_6291"
    INDEX 01 01:51:60
  TRACK 89 AUDIO
    TITLE "0:"
    INDEX 01 01:54:21
  TRACK 90 AUDIO
    TITLE "29:cjc135_6292"
    INDEX 01 01:55:22
  TRACK 91 AUDIO
    TITLE "0:"
    INDEX 01 01:56:18
  TRACK 92 AUDIO
    TITLE "30:cjc135_6293"
    INDEX 01 01:56:67
  TRACK 93 AUDIO
    TITLE "0:"
    INDEX 01 02:00:72
  TRACK 94 AUDIO
    TITLE "31:cjc135_6294"
    INDEX 01 02:01:23
  TRACK 95 AUDIO
    TITLE "0:"
    INDEX 01 02:03:30
  TRACK 96 AUDIO
    TITLE "32:cjc135_6295"
    INDEX 01 02:03:57
  TRACK 97 AUDIO
    TITLE "0:"
    INDEX 01 02:05:64
  TRACK 98 AUDIO
    TITLE "29:cjc135_6296"
    INDEX 01 02:06:67
  TRACK 99 AUDIO
    TITLE "0:"
    INDEX 01 02:07:71
  TRACK 100 AUDIO
    TITLE "30:cjc135_6297"
    INDEX 01 02:08:47
  TRACK 101 AUDIO
    TITLE "0:"
    INDEX 01 02:11:23
  TRACK 102 AUDIO
    TITLE "31:cjc135_6298"
    INDEX 01 02:11:49
  TRACK 103 AUDIO
    TITLE "0:"
    INDEX 01 02:14:00
  TRACK 104 AUDIO
    TITLE "32:cjc135_6299"
    INDEX 01 02:14:26
  TRACK 105 AUDIO
    TITLE "0:"
    INDEX 01 02:16:50
  TRACK 106 AUDIO
    TITLE "29:cjc135_6300"
    INDEX 01 02:17:49
  TRACK 107 AUDIO
    TITLE "0:"
    INDEX 01 02:18:57
  TRACK 108 AUDIO
    TITLE "30:cjc135_6301"
    INDEX 01 02:19:31
  TRACK 109 AUDIO
    TITLE "0:"
    INDEX 01 02:22:33
  TRACK 110 AUDIO
    TITLE "31:cjc135_6302"
    INDEX 01 02:22:56
  TRACK 111 AUDIO
    TITLE "0:"
    INDEX 01 02:25:43
  TRACK 112 AUDIO
    TITLE "32:cjc135_6303"
    INDEX 01 02:25:67
  TRACK 113 AUDIO
    TITLE "0:"
    INDEX 01 02:28:53
  TRACK 114 AUDIO
    TITLE "29:cjc135_6304"
    INDEX 01 02:29:53
  TRACK 115 AUDIO
    TITLE "0:"
    INDEX 01 02:30:54
  TRACK 116 AUDIO
    TITLE "30:cjc135_6305"
    INDEX 01 02:31:28
  TRACK 117 AUDIO
    TITLE "0:"
    INDEX 01 02:32:63
  TRACK 118 AUDIO
    TITLE "31:cjc135_6306"
    INDEX 01 02:33:15
  TRACK 119 AUDIO
    TITLE "0:"
    INDEX 01 02:34:56
  TRACK 120 AUDIO
    TITLE "32:cjc135_6307"
    INDEX 01 02:35:06
  TRACK 121 AUDIO
    TITLE "0:"
    INDEX 01 02:36:49
  TRACK 122 AUDIO
    TITLE "29:cjc135_6308"
    INDEX 01 02:37:50
  TRACK 123 AUDIO
    TITLE "0:"
    INDEX 01 02:38:71
  TRACK 124 AUDIO
    TITLE "30:cjc135_6309"
    INDEX 01 02:39:47
  TRACK 125 AUDIO
    TITLE "0:"
    INDEX 01 02:40:70
  TRACK 126 AUDIO
    TITLE "31:cjc135_6310"
    INDEX 01 02:41:21
  TRACK 127 AUDIO
    TITLE "0:"
    INDEX 01 02:42:73
  TRACK 128 AUDIO
    TITLE "32:cjc135_6311"
    INDEX 01 02:43:25
  TRACK 129 AUDIO
    TITLE "0:"
    INDEX 01 02:45:03
  TRACK 130 AUDIO
    TITLE "29:cjc135_6312"
    INDEX 01 02:46:04
  TRACK 131 AUDIO
    TITLE "0:"
    INDEX 01 02:47:15
  TRACK 132 AUDIO
    TITLE "30:cjc135_6313"
    INDEX 01 02:47:64
  TRACK 133 AUDIO
    TITLE "0:"
    INDEX 01 02:49:65
  TRACK 134 AUDIO
    TITLE "31:cjc135_6314"
    INDEX 01 02:50:14
  TRACK 135 AUDIO
    TITLE "0:"
    INDEX 01 02:51:68
  TRACK 136 AUDIO
    TITLE "32:cjc135_6315"
    INDEX 01 02:52:20
  TRACK 137 AUDIO
    TITLE "0:"
    INDEX 01 02:53:71
  TRACK 138 AUDIO
    TITLE "29:cjc135_6316"
    INDEX 01 02:54:72
  TRACK 139 AUDIO
    TITLE "0:"
    INDEX 01 02:56:20
  TRACK 140 AUDIO
    TITLE "30:cjc135_6317"
    INDEX 01 02:56:69
  TRACK 141 AUDIO
    TITLE "0:"
    INDEX 01 02:58:50
  TRACK 142 AUDIO
    TITLE "31:cjc135_6318"
    INDEX 01 02:59:03
  TRACK 143 AUDIO
    TITLE "0:"
    INDEX 01 03:01:13
  TRACK 144 AUDIO
    TITLE "32:cjc135_6319"
    INDEX 01 03:01:37
  TRACK 145 AUDIO
    TITLE "0:"
    INDEX 01 03:03:46
  TRACK 146 AUDIO
    TITLE "29:cjc135_6320"
    INDEX 01 03:04:47
  TRACK 147 AUDIO
    TITLE "0:"
    INDEX 01 03:05:62
  TRACK 148 AUDIO
    TITLE "30:cjc135_6321"
    INDEX 01 03:06:38
  TRACK 149 AUDIO
    TITLE "0:"
    INDEX 01 03:08:60
  TRACK 150 AUDIO
    TITLE "31:cjc135_6322"
    INDEX 01 03:09:09
  TRACK 151 AUDIO
    TITLE "0:"
    INDEX 01 03:10:57
  TRACK 152 AUDIO
    TITLE "32:cjc135_6323"
    INDEX 01 03:11:08
  TRACK 153 AUDIO
    TITLE "0:"
    INDEX 01 03:12:54
  TRACK 154 AUDIO
    TITLE "29:cjc135_6324"
    INDEX 01 03:13:54
  TRACK 155 AUDIO
    TITLE "0:"
    INDEX 01 03:14:61
  TRACK 156 AUDIO
    TITLE "30:cjc135_6325"
    INDEX 01 03:15:35
  TRACK 157 AUDIO
    TITLE "0:"
    INDEX 01 03:18:39
  TRACK 158 AUDIO
    TITLE "31:cjc135_6326"
    INDEX 01 03:18:67
  TRACK 159 AUDIO
    TITLE "0:"
    INDEX 01 03:21:40
  TRACK 160 AUDIO
    TITLE "32:cjc135_6327"
    INDEX 01 03:21:65
  TRACK 161 AUDIO
    TITLE "0:"
    INDEX 01 03:24:38
  TRACK 162 AUDIO
    TITLE "29:cjc135_6328"
    INDEX 01 03:25:37
  TRACK 163 AUDIO
    TITLE "0:"
    INDEX 01 03:26:56
  TRACK 164 AUDIO
    TITLE "30:cjc135_6329"
    INDEX 01 03:27:32
  TRACK 165 AUDIO
    TITLE "0:"
    INDEX 01 03:30:29
  TRACK 166 AUDIO
    TITLE "31:cjc135_6330"
    INDEX 01 03:30:58
  TRACK 167 AUDIO
    TITLE "0:"
    INDEX 01 03:33:47
  TRACK 168 AUDIO
    TITLE "32:cjc135_6331"
    INDEX 01 03:33:72
  TRACK 169 AUDIO
    TITLE "0:"
    INDEX 01 03:36:63
  TRACK 170 AUDIO
    TITLE "29:cjc135_6332"
    INDEX 01 03:37:62
  TRACK 171 AUDIO
    TITLE "0:"
    INDEX 01 03:38:69
  TRACK 172 AUDIO
    TITLE "30:cjc135_6333"
    INDEX 01 03:39:45
  TRACK 173 AUDIO
    TITLE "0:"
    INDEX 01 03:41:48
  TRACK 174 AUDIO
    TITLE "31:cjc135_6334"
    INDEX 01 03:42:01
  TRACK 175 AUDIO
    TITLE "0:"
    INDEX 01 03:43:67
  TRACK 176 AUDIO
    TITLE "32:cjc135_6335"
    INDEX 01 03:44:17
  TRACK 177 AUDIO
    TITLE "0:"
    INDEX 01 03:46:12
  TRACK 178 AUDIO
    TITLE "29:cjc135_6336"
    INDEX 01 03:47:10
  TRACK 179 AUDIO
    TITLE "0:"
    INDEX 01 03:48:19
  TRACK 180 AUDIO
    TITLE "30:cjc135_6337"
    INDEX 01 03:48:68
  TRACK 181 AUDIO
    TITLE "0:"
    INDEX 01 03:50:63
  TRACK 182 AUDIO
    TITLE "31:cjc135_6338"
    INDEX 01 03:51:11
  TRACK 183 AUDIO
    TITLE "0:"
    INDEX 01 03:53:16
  TRACK 184 AUDIO
    TITLE "32:cjc135_6339"
    INDEX 01 03:53:40
  TRACK 185 AUDIO
    TITLE "0:"
    INDEX 01 03:55:42
  TRACK 186 AUDIO
    TITLE "29:cjc135_6340"
    INDEX 01 03:56:42
  TRACK 187 AUDIO
    TITLE "0:"
    INDEX 01 03:57:61
  TRACK 188 AUDIO
    TITLE "30:cjc135_6341"
    INDEX 01 03:58:35
  TRACK 189 AUDIO
    TITLE "0:"
    INDEX 01 04:00:24
  TRACK 190 AUDIO
    TITLE "31:cjc135_6342"
    INDEX 01 04:00:49
  TRACK 191 AUDIO
    TITLE "0:"
    INDEX 01 04:02:44
  TRACK 192 AUDIO
    TITLE "32:cjc135_6343"
    INDEX 01 04:02:70
  TRACK 193 AUDIO
    TITLE "0:"
    INDEX 01 04:04:65
  TRACK 194 AUDIO
    TITLE "29:cjc135_6344"
    INDEX 01 04:05:64
  TRACK 195 AUDIO
    TITLE "0:"
    INDEX 01 04:07:14
  TRACK 196 AUDIO
    TITLE "30:cjc135_6345"
    INDEX 01 04:07:61
  TRACK 197 AUDIO
    TITLE "0:"
    INDEX 01 04:09:45
  TRACK 198 AUDIO
    TITLE "31:cjc135_6346"
    INDEX 01 04:09:70
  TRACK 199 AUDIO
    TITLE "0:"
    INDEX 01 04:11:67
  TRACK 200 AUDIO
    TITLE "32:cjc135_6347"
    INDEX 01 04:12:17
  TRACK 201 AUDIO
    TITLE "0:"
    INDEX 01 04:14:16
  TRACK 202 AUDIO
    TITLE "29:cjc135_6348"
    INDEX 01 04:15:14
  TRACK 203 AUDIO
    TITLE "0:"
    INDEX 01 04:16:23
  TRACK 204 AUDIO
    TITLE "30:cjc135_6349"
    INDEX 01 04:16:72
  TRACK 205 AUDIO
    TITLE "0:"
    INDEX 01 04:18:57
  TRACK 206 AUDIO
    TITLE "31:cjc135_6350"
    INDEX 01 04:19:08
  TRACK 207 AUDIO
    TITLE "0:"
    INDEX 01 04:20:64
  TRACK 208 AUDIO
    TITLE "32:cjc135_6351"
    INDEX 01 04:21:14
  TRACK 209 AUDIO
    TITLE "0:"
    INDEX 01 04:22:71
  TRACK 210 AUDIO
    TITLE "29:cjc135_6352"
    INDEX 01 04:23:72
  TRACK 211 AUDIO
    TITLE "0:"
    INDEX 01 04:25:06
  TRACK 212 AUDIO
    TITLE "30:cjc135_6353"
    INDEX 01 04:25:55
  TRACK 213 AUDIO
    TITLE "0:"
    INDEX 01 04:27:74
  TRACK 214 AUDIO
    TITLE "31:cjc135_6354"
    INDEX 01 04:28:26
  TRACK 215 AUDIO
    TITLE "0:"
    INDEX 01 04:30:60
  TRACK 216 AUDIO
    TITLE "32:cjc135_6355"
    INDEX 01 04:31:11
  TRACK 217 AUDIO
    TITLE "0:"
    INDEX 01 04:33:45
  TRACK 218 AUDIO
    TITLE "29:cjc135_6356"
    INDEX 01 04:34:44
  TRACK 219 AUDIO
    TITLE "0:"
    INDEX 01 04:36:04
  TRACK 220 AUDIO
    TITLE "30:cjc135_6357"
    INDEX 01 04:36:53
  TRACK 221 AUDIO
    TITLE "0:"
    INDEX 01 04:38:11
  TRACK 222 AUDIO
    TITLE "31:cjc135_6358"
    INDEX 01 04:38:34
  TRACK 223 AUDIO
    TITLE "0:"
    INDEX 01 04:40:43
  TRACK 224 AUDIO
    TITLE "32:cjc135_6359"
    INDEX 01 04:40:72
  TRACK 225 AUDIO
    TITLE "0:"
    INDEX 01 04:43:06
  TRACK 226 AUDIO
    TITLE "29:cjc135_6360"
    INDEX 01 04:44:10
  TRACK 227 AUDIO
    TITLE "0:"
    INDEX 01 04:45:34
  TRACK 228 AUDIO
    TITLE "30:cjc135_6361"
    INDEX 01 04:46:10
  TRACK 229 AUDIO
    TITLE "0:"
    INDEX 01 04:48:09
  TRACK 230 AUDIO
    TITLE "31:cjc135_6362"
    INDEX 01 04:48:35
  TRACK 231 AUDIO
    TITLE "0:"
    INDEX 01 04:50:57
  TRACK 232 AUDIO
    TITLE "32:cjc135_6363"
    INDEX 01 04:51:10
  TRACK 233 AUDIO
    TITLE "0:"
    INDEX 01 04:53:32
  TRACK 234 AUDIO
    TITLE "29:cjc135_6364"
    INDEX 01 04:54:35
  TRACK 235 AUDIO
    TITLE "0:"
    INDEX 01 04:55:56
  TRACK 236 AUDIO
    TITLE "30:cjc135_6365"
    INDEX 01 04:56:32
  TRACK 237 AUDIO
    TITLE "0:"
    INDEX 01 04:58:66
  TRACK 238 AUDIO
    TITLE "31:cjc135_6366"
    INDEX 01 04:59:17
  TRACK 239 AUDIO
    TITLE "0:"
    INDEX 01 05:02:02
  TRACK 240 AUDIO
    TITLE "32:cjc135_6367"
    INDEX 01 05:02:27
  TRACK 241 AUDIO
    TITLE "0:"
    INDEX 01 05:05:12
  TRACK 242 AUDIO
    TITLE "29:cjc135_6368"
    INDEX 01 05:06:13
  TRACK 243 AUDIO
    TITLE "0:"
    INDEX 01 05:07:07
  TRACK 244 AUDIO
    TITLE "30:cjc135_6369"
    INDEX 01 05:07:60
  TRACK 245 AUDIO
    TITLE "0:"
    INDEX 01 05:09:58
  TRACK 246 AUDIO
    TITLE "31:cjc135_6370"
    INDEX 01 05:10:13
  TRACK 247 AUDIO
    TITLE "0:"
    INDEX 01 05:11:40
  TRACK 248 AUDIO
    TITLE "32:cjc135_6371"
    INDEX 01 05:11:65
  TRACK 249 AUDIO
    TITLE "0:"
    INDEX 01 05:13:17
  TRACK 250 AUDIO
    TITLE "29:cjc135_6372"
    INDEX 01 05:14:17
  TRACK 251 AUDIO
    TITLE "0:"
    INDEX 01 05:15:49
  TRACK 252 AUDIO
    TITLE "30:cjc135_6373"
    INDEX 01 05:16:21
  TRACK 253 AUDIO
    TITLE "0:"
    INDEX 01 05:20:19
  TRACK 254 AUDIO
    TITLE "31:cjc135_6374"
    INDEX 01 05:20:43
  TRACK 255 AUDIO
    TITLE "0:"
    INDEX 01 05:24:15
  TRACK 256 AUDIO
    TITLE "32:cjc135_6375"
    INDEX 01 05:24:40
  TRACK 257 AUDIO
    TITLE "0:"
    INDEX 01 05:28:11
  TRACK 258 AUDIO
    TITLE "29:cjc135_6376"
    INDEX 01 05:29:12
  TRACK 259 AUDIO
    TITLE "0:"
    INDEX 01 05:30:25
  TRACK 260 AUDIO
    TITLE "30:cjc135_6377"
    INDEX 01 05:30:74
  TRACK 261 AUDIO
    TITLE "0:"
    INDEX 01 05:34:47
  TRACK 262 AUDIO
    TITLE "31:cjc135_6378"
    INDEX 01 05:35:03
  TRACK 263 AUDIO
    TITLE "0:"
    INDEX 01 05:37:61
  TRACK 264 AUDIO
    TITLE "32:cjc135_6379"
    INDEX 01 05:38:13
  TRACK 265 AUDIO
    TITLE "0:"
    INDEX 01 05:40:71
  TRACK 266 AUDIO
    TITLE "29:cjc135_6380"
    INDEX 01 05:41:72
  TRACK 267 AUDIO
    TITLE "0:"
    INDEX 01 05:43:10
  TRACK 268 AUDIO
    TITLE "30:cjc135_6381"
    INDEX 01 05:43:59
  TRACK 269 AUDIO
    TITLE "0:"
    INDEX 01 05:45:41
  TRACK 270 AUDIO
    TITLE "31:cjc135_6382"
    INDEX 01 05:45:68
  TRACK 271 AUDIO
    TITLE "0:"
    INDEX 01 05:47:57
  TRACK 272 AUDIO
    TITLE "32:cjc135_6383"
    INDEX 01 05:48:08
  TRACK 273 AUDIO
    TITLE "0:"
    INDEX 01 05:49:70
  TRACK 274 AUDIO
    TITLE "29:cjc135_6384"
    INDEX 01 05:50:71
  TRACK 275 AUDIO
    TITLE "0:"
    INDEX 01 05:52:11
  TRACK 276 AUDIO
    TITLE "30:cjc135_6385"
    INDEX 01 05:52:62
  TRACK 277 AUDIO
    TITLE "0:"
    INDEX 01 05:55:19
  TRACK 278 AUDIO
    TITLE "31:cjc135_6386"
    INDEX 01 05:55:45
  TRACK 279 AUDIO
    TITLE "0:"
    INDEX 01 05:57:44
  TRACK 280 AUDIO
    TITLE "32:cjc135_6387"
    INDEX 01 05:57:69
  TRACK 281 AUDIO
    TITLE "0:"
    INDEX 01 05:59:70
  TRACK 282 AUDIO
    TITLE "29:cjc135_6388"
    INDEX 01 06:00:70
  TRACK 283 AUDIO
    TITLE "0:"
    INDEX 01 06:02:23
  TRACK 284 AUDIO
    TITLE "30:cjc135_6389"
    INDEX 01 06:02:72
  TRACK 285 AUDIO
    TITLE "0:"
    INDEX 01 06:05:51
  TRACK 286 AUDIO
    TITLE "31:cjc135_6390"
    INDEX 01 06:06:06
  TRACK 287 AUDIO
    TITLE "0:"
    INDEX 01 06:08:28
  TRACK 288 AUDIO
    TITLE "32:cjc135_6391"
    INDEX 01 06:08:51
  TRACK 289 AUDIO
    TITLE "0:"
    INDEX 01 06:10:74
  TRACK 290 AUDIO
    TITLE "29:cjc135_6392"
    INDEX 01 06:12:00
  TRACK 291 AUDIO
    TITLE "0:"
    INDEX 01 06:13:13
  TRACK 292 AUDIO
    TITLE "30:cjc135_6393"
    INDEX 01 06:13:62
  TRACK 293 AUDIO
    TITLE "0:"
    INDEX 01 06:15:40
  TRACK 294 AUDIO
    TITLE "31:cjc135_6394"
    INDEX 01 06:15:65
  TRACK 295 AUDIO
    TITLE "0:"
    INDEX 01 06:17:37
  TRACK 296 AUDIO
    TITLE "32:cjc135_6395"
    INDEX 01 06:17:62
  TRACK 297 AUDIO
    TITLE "0:"
    INDEX 01 06:19:34
  TRACK 298 AUDIO
    TITLE "29:cjc135_6396"
    INDEX 01 06:20:35
  TRACK 299 AUDIO
    TITLE "0:"
    INDEX 01 06:21:50
  TRACK 300 AUDIO
    TITLE "30:cjc135_6397"
    INDEX 01 06:22:26
  TRACK 301 AUDIO
    TITLE "0:"
    INDEX 01 06:25:03
  TRACK 302 AUDIO
    TITLE "31:cjc135_6398"
    INDEX 01 06:25:26
  TRACK 303 AUDIO
    TITLE "0:"
    INDEX 01 06:27:33
  TRACK 304 AUDIO
    TITLE "32:cjc135_6399"
    INDEX 01 06:27:57
  TRACK 305 AUDIO
    TITLE "0:"
    INDEX 01 06:29:63
  TRACK 306 AUDIO
    TITLE "29:cjc135_6400"
    INDEX 01 06:30:63
  TRACK 307 AUDIO
    TITLE "0:"
    INDEX 01 06:31:74
  TRACK 308 AUDIO
    TITLE "30:cjc135_6401"
    INDEX 01 06:32:52
  TRACK 309 AUDIO
    TITLE "0:"
    INDEX 01 06:34:70
  TRACK 310 AUDIO
    TITLE "31:cjc135_6402"
    INDEX 01 06:35:23
  TRACK 311 AUDIO
    TITLE "0:"
    INDEX 01 06:37:51
  TRACK 312 AUDIO
    TITLE "32:cjc135_6403"
    INDEX 01 06:38:00
  TRACK 313 AUDIO
    TITLE "0:"
    INDEX 01 06:40:28
  TRACK 314 AUDIO
    TITLE "29:cjc135_6404"
    INDEX 01 06:41:27
  TRACK 315 AUDIO
    TITLE "0:"
    INDEX 01 06:42:39
  TRACK 316 AUDIO
    TITLE "30:cjc135_6405"
    INDEX 01 06:43:15
  TRACK 317 AUDIO
    TITLE "0:"
    INDEX 01 06:44:69
  TRACK 318 AUDIO
    TITLE "31:cjc135_6406"
    INDEX 01 06:45:19
  TRACK 319 AUDIO
    TITLE "0:"
    INDEX 01 06:47:26
  TRACK 320 AUDIO
    TITLE "32:cjc135_6407"
    INDEX 01 06:47:50
  TRACK 321 AUDIO
    TITLE "0:"
    INDEX 01 06:49:56
  TRACK 322 AUDIO
    TITLE "29:cjc135_6408"
    INDEX 01 06:50:54
  TRACK 323 AUDIO
    TITLE "0:"
    INDEX 01 06:51:73
  TRACK 324 AUDIO
    TITLE "30:cjc135_6409"
    INDEX 01 06:52:47
  TRACK 325 AUDIO
    TITLE "0:"
    INDEX 01 06:55:02
  TRACK 326 AUDIO
    TITLE "31:cjc135_6410"
    INDEX 01 06:55:26
  TRACK 327 AUDIO
    TITLE "0:"
    INDEX 01 06:57:38
  TRACK 328 AUDIO
    TITLE "32:cjc135_6411"
    INDEX 01 06:57:64
  TRACK 329 AUDIO
    TITLE "0:"
    INDEX 01 07:00:01
  TRACK 330 AUDIO
    TITLE "29:cjc135_6412"
    INDEX 01 07:00:74
  TRACK 331 AUDIO
    TITLE "0:"
    INDEX 01 07:02:18
  TRACK 332 AUDIO
    TITLE "30:cjc135_6413"
    INDEX 01 07:02:67
  TRACK 333 AUDIO
    TITLE "0:"
    INDEX 01 07:05:38
  TRACK 334 AUDIO
    TITLE "31:cjc135_6414"
    INDEX 01 07:05:63
  TRACK 335 AUDIO
    TITLE "0:"
    INDEX 01 07:08:24
  TRACK 336 AUDIO
    TITLE "32:cjc135_6415"
    INDEX 01 07:08:50
  TRACK 337 AUDIO
    TITLE "0:"
    INDEX 01 07:11:13
  TRACK 338 AUDIO
    TITLE "29:cjc135_6416"
    INDEX 01 07:12:12
  TRACK 339 AUDIO
    TITLE "0:"
    INDEX 01 07:13:33
  TRACK 340 AUDIO
    TITLE "30:cjc135_6417"
    INDEX 01 07:14:07
  TRACK 341 AUDIO
    TITLE "0:"
    INDEX 01 07:17:02
  TRACK 342 AUDIO
    TITLE "31:cjc135_6418"
    INDEX 01 07:17:27
  TRACK 343 AUDIO
    TITLE "0:"
    INDEX 01 07:20:12
  TRACK 344 AUDIO
    TITLE "32:cjc135_6419"
    INDEX 01 07:20:39
  TRACK 345 AUDIO
    TITLE "0:"
    INDEX 01 07:23:26
  TRACK 346 AUDIO
    TITLE "29:cjc135_6420"
    INDEX 01 07:24:27
  TRACK 347 AUDIO
    TITLE "0:"
    INDEX 01 07:25:38
  TRACK 348 AUDIO
    TITLE "30:cjc135_6421"
    INDEX 01 07:26:14
  TRACK 349 AUDIO
    TITLE "0:"
    INDEX 01 07:29:54
  TRACK 350 AUDIO
    TITLE "31:cjc135_6422"
    INDEX 01 07:30:10
  TRACK 351 AUDIO
    TITLE "0:"
    INDEX 01 07:32:62
  TRACK 352 AUDIO
    TITLE "32:cjc135_6423"
    INDEX 01 07:33:12
  TRACK 353 AUDIO
    TITLE "0:"
    INDEX 01 07:35:64
  TRACK 354 AUDIO
    TITLE "29:cjc135_6424"
    INDEX 01 07:36:66
  TRACK 355 AUDIO
    TITLE "0:"
    INDEX 01 07:37:71
  TRACK 356 AUDIO
    TITLE "30:cjc135_6425"
    INDEX 01 07:38:47
  TRACK 357 AUDIO
    TITLE "0:"
    INDEX 01 07:40:50
  TRACK 358 AUDIO
    TITLE "31:cjc135_6426"
    INDEX 01 07:41:02
  TRACK 359 AUDIO
    TITLE "0:"
    INDEX 01 07:42:74
  TRACK 360 AUDIO
    TITLE "32:cjc135_6427"
    INDEX 01 07:43:25
  TRACK 361 AUDIO
    TITLE "0:"
    INDEX 01 07:45:21
  TRACK 362 AUDIO
    TITLE "29:cjc135_6428"
    INDEX 01 07:46:23
  TRACK 363 AUDIO
    TITLE "0:"
    INDEX 01 07:47:38
  TRACK 364 AUDIO
    TITLE "30:cjc135_6429"
    INDEX 01 07:48:12
  TRACK 365 AUDIO
    TITLE "0:"
    INDEX 01 07:50:19
  TRACK 366 AUDIO
    TITLE "31:cjc135_6430"
    INDEX 01 07:50:50
  TRACK 367 AUDIO
    TITLE "0:"
    INDEX 01 07:52:59
  TRACK 368 AUDIO
    TITLE "32:cjc135_6431"
    INDEX 01 07:53:09
  TRACK 369 AUDIO
    TITLE "0:"
    INDEX 01 07:55:18
  TRACK 370 AUDIO
    TITLE "29:cjc135_6432"
    INDEX 01 07:56:19
  TRACK 371 AUDIO
    TITLE "0:"
    INDEX 01 07:57:40
  TRACK 372 AUDIO
    TITLE "30:cjc135_6433"
    INDEX 01 07:58:14
  TRACK 373 AUDIO
    TITLE "0:"
    INDEX 01 08:00:01
  TRACK 374 AUDIO
    TITLE "31:cjc135_6434"
    INDEX 01 08:00:27
  TRACK 375 AUDIO
    TITLE "0:"
    INDEX 01 08:02:18
  TRACK 376 AUDIO
    TITLE "32:cjc135_6435"
    INDEX 01 08:02:42
  TRACK 377 AUDIO
    TITLE "0:"
    INDEX 01 08:04:31
  TRACK 378 AUDIO
    TITLE "29:cjc135_6436"
    INDEX 01 08:05:32
  TRACK 379 AUDIO
    TITLE "0:"
    INDEX 01 08:06:45
  TRACK 380 AUDIO
    TITLE "30:cjc135_6437"
    INDEX 01 08:07:19
  TRACK 381 AUDIO
    TITLE "0:"
    INDEX 01 08:10:00
  TRACK 382 AUDIO
    TITLE "31:cjc135_6438"
    INDEX 01 08:10:25
  TRACK 383 AUDIO
    TITLE "0:"
    INDEX 01 08:12:36
  TRACK 384 AUDIO
    TITLE "32:cjc135_6439"
    INDEX 01 08:12:60
  TRACK 385 AUDIO
    TITLE "0:"
    INDEX 01 08:14:70
  TRACK 386 AUDIO
    TITLE "29:cjc135_6440"
    INDEX 01 08:15:70
  TRACK 387 AUDIO
    TITLE "0:"
    INDEX 01 08:17:06
  TRACK 388 AUDIO
    TITLE "30:cjc135_6441"
    INDEX 01 08:17:55
  TRACK 389 AUDIO
    TITLE "0:"
    INDEX 01 08:21:31
  TRACK 390 AUDIO
    TITLE "31:cjc135_6442"
    INDEX 01 08:21:57
  TRACK 391 AUDIO
    TITLE "0:"
    INDEX 01 08:24:35
  TRACK 392 AUDIO
    TITLE "32:cjc135_6443"
    INDEX 01 08:24:59
  TRACK 393 AUDIO
    TITLE "0:"
    INDEX 01 08:27:36
  TRACK 394 AUDIO
    TITLE "29:cjc135_6444"
    INDEX 01 08:28:37
  TRACK 395 AUDIO
    TITLE "0:"
    INDEX 01 08:29:52
  TRACK 396 AUDIO
    TITLE "30:cjc135_6445"
    INDEX 01 08:30:28
  TRACK 397 AUDIO
    TITLE "0:"
    INDEX 01 08:32:07
  TRACK 398 AUDIO
    TITLE "31:cjc135_6446"
    INDEX 01 08:32:35
  TRACK 399 AUDIO
    TITLE "0:"
    INDEX 01 08:34:34
  TRACK 400 AUDIO
    TITLE "32:cjc135_6447"
    INDEX 01 08:34:61
  TRACK 401 AUDIO
    TITLE "0:"
    INDEX 01 08:36:60
  TRACK 402 AUDIO
    TITLE "29:cjc135_6448"
    INDEX 01 08:37:59
  TRACK 403 AUDIO
    TITLE "0:"
    INDEX 01 08:38:73
  TRACK 404 AUDIO
    TITLE "30:cjc135_6449"
    INDEX 01 08:39:50
  TRACK 405 AUDIO
    TITLE "0:"
    INDEX 01 08:41:26
  TRACK 406 AUDIO
    TITLE "31:cjc135_6450"
    INDEX 01 08:41:51
  TRACK 407 AUDIO
    TITLE "0:"
    INDEX 01 08:43:23
  TRACK 408 AUDIO
    TITLE "32:cjc135_6451"
    INDEX 01 08:43:46
  TRACK 409 AUDIO
    TITLE "0:"
    INDEX 01 08:45:18
  TRACK 410 AUDIO
    TITLE "29:cjc135_6452"
    INDEX 01 08:46:17
  TRACK 411 AUDIO
    TITLE "0:"
    INDEX 01 08:47:34
  TRACK 412 AUDIO
    TITLE "30:cjc135_6453"
    INDEX 01 08:48:18
  TRACK 413 AUDIO
    TITLE "0:"
    INDEX 01 08:51:03
  TRACK 414 AUDIO
    TITLE "31:cjc135_6454"
    INDEX 01 08:51:30
  TRACK 415 AUDIO
    TITLE "0:"
    INDEX 01 08:54:58
  TRACK 416 AUDIO
    TITLE "32:cjc135_6455"
    INDEX 01 08:55:06
  TRACK 417 AUDIO
    TITLE "0:"
    INDEX 01 08:58:34
  TRACK 418 AUDIO
    TITLE "29:cjc135_6456"
    INDEX 01 08:59:36
  TRACK 419 AUDIO
    TITLE "0:"
    INDEX 01 09:00:47
  TRACK 420 AUDIO
    TITLE "30:cjc135_6457"
    INDEX 01 09:01:23
  TRACK 421 AUDIO
    TITLE "0:"
    INDEX 01 09:03:29
  TRACK 422 AUDIO
    TITLE "31:cjc135_6458"
    INDEX 01 09:03:55
  TRACK 423 AUDIO
    TITLE "0:"
    INDEX 01 09:05:34
  TRACK 424 AUDIO
    TITLE "32:cjc135_6459"
    INDEX 01 09:05:60
  TRACK 425 AUDIO
    TITLE "0:"
    INDEX 01 09:07:39
  TRACK 426 AUDIO
    TITLE "29:cjc135_6460"
    INDEX 01 09:08:38
  TRACK 427 AUDIO
    TITLE "0:"
    INDEX 01 09:09:48
  TRACK 428 AUDIO
    TITLE "30:cjc135_6461"
    INDEX 01 09:10:26
  TRACK 429 AUDIO
    TITLE "0:"
    INDEX 01 09:12:56
  TRACK 430 AUDIO
    TITLE "31:cjc135_6462"
    INDEX 01 09:13:06
  TRACK 431 AUDIO
    TITLE "0:"
    INDEX 01 09:15:23
  TRACK 432 AUDIO
    TITLE "32:cjc135_6463"
    INDEX 01 09:15:46
  TRACK 433 AUDIO
    TITLE "0:"
    INDEX 01 09:17:63
  TRACK 434 AUDIO
    TITLE "29:cjc135_6464"
    INDEX 01 09:18:62
  TRACK 435 AUDIO
    TITLE "0:"
    INDEX 01 09:20:10
  TRACK 436 AUDIO
    TITLE "30:cjc135_6465"
    INDEX 01 09:20:61
  TRACK 437 AUDIO
    TITLE "0:"
    INDEX 01 09:22:58
  TRACK 438 AUDIO
    TITLE "31:cjc135_6466"
    INDEX 01 09:23:09
  TRACK 439 AUDIO
    TITLE "0:"
    INDEX 01 09:25:04
  TRACK 440 AUDIO
    TITLE "32:cjc135_6467"
    INDEX 01 09:25:29
  TRACK 441 AUDIO
    TITLE "0:"
    INDEX 01 09:27:26
  TRACK 442 AUDIO
    TITLE "29:cjc135_6468"
    INDEX 01 09:28:25
  TRACK 443 AUDIO
    TITLE "0:"
    INDEX 01 09:29:33
  TRACK 444 AUDIO
    TITLE "30:cjc135_6469"
    INDEX 01 09:30:09
  TRACK 445 AUDIO
    TITLE "0:"
    INDEX 01 09:32:66
  TRACK 446 AUDIO
    TITLE "31:cjc135_6470"
    INDEX 01 09:33:19
  TRACK 447 AUDIO
    TITLE "0:"
    INDEX 01 09:35:39
  TRACK 448 AUDIO
    TITLE "32:cjc135_6471"
    INDEX 01 09:35:71
  TRACK 449 AUDIO
    TITLE "0:"
    INDEX 01 09:38:16
  TRACK 450 AUDIO
    TITLE "29:cjc135_6472"
    INDEX 01 09:39:19
  TRACK 451 AUDIO
    TITLE "0:"
    INDEX 01 09:40:44
  TRACK 452 AUDIO
    TITLE "30:cjc135_6473"
    INDEX 01 09:41:20
  TRACK 453 AUDIO
    TITLE "0:"
    INDEX 01 09:45:00
  TRACK 454 AUDIO
    TITLE "31:cjc135_6474"
    INDEX 01 09:45:28
  TRACK 455 AUDIO
    TITLE "0:"
    INDEX 01 09:48:36
  TRACK 456 AUDIO
    TITLE "32:cjc135_6475"
    INDEX 01 09:48:59
  TRACK 457 AUDIO
    TITLE "0:"
    INDEX 01 09:51:66
  TRACK 458 AUDIO
    TITLE "29:cjc135_6476"
    INDEX 01 09:52:67
  TRACK 459 AUDIO
    TITLE "0:"
    INDEX 01 09:54:23
  TRACK 460 AUDIO
    TITLE "30:cjc135_6477"
    INDEX 01 09:54:72
  TRACK 461 AUDIO
    TITLE "0:"
    INDEX 01 09:57:68
  TRACK 462 AUDIO
    TITLE "31:cjc135_6478"
    INDEX 01 09:58:17
  TRACK 463 AUDIO
    TITLE "0:"
    INDEX 01 10:00:59
  TRACK 464 AUDIO
    TITLE "32:cjc135_6479"
    INDEX 01 10:01:09
  TRACK 465 AUDIO
    TITLE "0:"
    INDEX 01 10:03:53
  TRACK 466 AUDIO
    TITLE "29:cjc135_6480"
    INDEX 01 10:04:53
  TRACK 467 AUDIO
    TITLE "0:"
    INDEX 01 10:05:66
  TRACK 468 AUDIO
    TITLE "30:cjc135_6481"
    INDEX 01 10:06:40
  TRACK 469 AUDIO
    TITLE "0:"
    INDEX 01 10:08:13
  TRACK 470 AUDIO
    TITLE "31:cjc135_6482"
    INDEX 01 10:08:37
  TRACK 471 AUDIO
    TITLE "0:"
    INDEX 01 10:10:02
  TRACK 472 AUDIO
    TITLE "32:cjc135_6483"
    INDEX 01 10:10:28
  TRACK 473 AUDIO
    TITLE "0:"
    INDEX 01 10:11:66
  TRACK 474 AUDIO
    TITLE "29:cjc135_6484"
    INDEX 01 10:12:68
  TRACK 475 AUDIO
    TITLE "0:"
    INDEX 01 10:14:08
  TRACK 476 AUDIO
    TITLE "30:cjc135_6485"
    INDEX 01 10:14:57
  TRACK 477 AUDIO
    TITLE "0:"
    INDEX 01 10:17:20
  TRACK 478 AUDIO
    TITLE "31:cjc135_6486"
    INDEX 01 10:17:42
  TRACK 479 AUDIO
    TITLE "0:"
    INDEX 01 10:19:13
  TRACK 480 AUDIO
    TITLE "32:cjc135_6487"
    INDEX 01 10:19:37
  TRACK 481 AUDIO
    TITLE "0:"
    INDEX 01 10:21:08
  TRACK 482 AUDIO
    TITLE "29:cjc135_6488"
    INDEX 01 10:22:07
  TRACK 483 AUDIO
    TITLE "0:"
    INDEX 01 10:23:15
  TRACK 484 AUDIO
    TITLE "30:cjc135_6489"
    INDEX 01 10:23:68
  TRACK 485 AUDIO
    TITLE "0:"
    INDEX 01 10:26:52
  TRACK 486 AUDIO
    TITLE "31:cjc135_6490"
    INDEX 01 10:26:74
  TRACK 487 AUDIO
    TITLE "0:"
    INDEX 01 10:29:47
  TRACK 488 AUDIO
    TITLE "32:cjc135_6491"
    INDEX 01 10:29:72
  TRACK 489 AUDIO
    TITLE "0:"
    INDEX 01 10:32:47
  TRACK 490 AUDIO
    TITLE "29:cjc135_6492"
    INDEX 01 10:33:45
  TRACK 491 AUDIO
    TITLE "0:"
    INDEX 01 10:34:66
  TRACK 492 AUDIO
    TITLE "30:cjc135_6493"
    INDEX 01 10:35:41
  TRACK 493 AUDIO
    TITLE "0:"
    INDEX 01 10:37:38
  TRACK 494 AUDIO
    TITLE "31:cjc135_6494"
    INDEX 01 10:37:64
  TRACK 495 AUDIO
    TITLE "0:"
    INDEX 01 10:39:61
  TRACK 496 AUDIO
    TITLE "32:cjc135_6495"
    INDEX 01 10:40:09
  TRACK 497 AUDIO
    TITLE "0:"
    INDEX 01 10:42:06
  TRACK 498 AUDIO
    TITLE "29:cjc135_6496"
    INDEX 01 10:43:06
  TRACK 499 AUDIO
    TITLE "0:"
    INDEX 01 10:44:21
  TRACK 500 AUDIO
    TITLE "30:cjc135_6497"
    INDEX 01 10:44:70
  TRACK 501 AUDIO
    TITLE "0:"
    INDEX 01 10:48:24
  TRACK 502 AUDIO
    TITLE "31:cjc135_6498"
    INDEX 01 10:48:50
  TRACK 503 AUDIO
    TITLE "0:"
    INDEX 01 10:51:25
  TRACK 504 AUDIO
    TITLE "32:cjc135_6499"
    INDEX 01 10:51:50
  TRACK 505 AUDIO
    TITLE "0:"
    INDEX 01 10:54:25
  TRACK 506 AUDIO
    TITLE "29:cjc135_6500"
    INDEX 01 10:55:27
  TRACK 507 AUDIO
    TITLE "0:"
    INDEX 01 10:56:53
  TRACK 508 AUDIO
    TITLE "30:cjc135_6501"
    INDEX 01 10:57:29
  TRACK 509 AUDIO
    TITLE "0:"
    INDEX 01 10:58:70
  TRACK 510 AUDIO
    TITLE "31:cjc135_6502"
    INDEX 01 10:59:20
  TRACK 511 AUDIO
    TITLE "0:"
    INDEX 01 11:01:02
  TRACK 512 AUDIO
    TITLE "32:cjc135_6503"
    INDEX 01 11:01:27
  TRACK 513 AUDIO
    TITLE "0:"
    INDEX 01 11:03:10
  TRACK 514 AUDIO
    TITLE "29:cjc135_6504"
    INDEX 01 11:04:10
  TRACK 515 AUDIO
    TITLE "0:"
    INDEX 01 11:05:21
  TRACK 516 AUDIO
    TITLE "30:cjc135_6505"
    INDEX 01 11:05:72
  TRACK 517 AUDIO
    TITLE "0:"
    INDEX 01 11:08:12
  TRACK 518 AUDIO
    TITLE "31:cjc135_6506"
    INDEX 01 11:08:37
  TRACK 519 AUDIO
    TITLE "0:"
    INDEX 01 11:10:32
  TRACK 520 AUDIO
    TITLE "32:cjc135_6507"
    INDEX 01 11:10:57
  TRACK 521 AUDIO
    TITLE "0:"
    INDEX 01 11:12:52
  TRACK 522 AUDIO
    TITLE "29:cjc135_6508"
    INDEX 01 11:13:52
  TRACK 523 AUDIO
    TITLE "0:"
    INDEX 01 11:14:65
  TRACK 524 AUDIO
    TITLE "30:cjc135_6509"
    INDEX 01 11:15:39
  TRACK 525 AUDIO
    TITLE "0:"
    INDEX 01 11:17:67
  TRACK 526 AUDIO
    TITLE "31:cjc135_6510"
    INDEX 01 11:18:16
  TRACK 527 AUDIO
    TITLE "0:"
    INDEX 01 11:19:70
  TRACK 528 AUDIO
    TITLE "32:cjc135_6511"
    INDEX 01 11:20:21
  TRACK 529 AUDIO
    TITLE "0:"
    INDEX 01 11:22:02
  TRACK 530 AUDIO
    TITLE "29:cjc135_6512"
    INDEX 01 11:22:74
  TRACK 531 AUDIO
    TITLE "0:"
    INDEX 01 11:24:26
  TRACK 532 AUDIO
    TITLE "30:cjc135_6513"
    INDEX 01 11:25:02
  TRACK 533 AUDIO
    TITLE "0:"
    INDEX 01 11:26:68
  TRACK 534 AUDIO
    TITLE "31:cjc135_6514"
    INDEX 01 11:27:19
  TRACK 535 AUDIO
    TITLE "0:"
    INDEX 01 11:29:18
  TRACK 536 AUDIO
    TITLE "32:cjc135_6515"
    INDEX 01 11:29:45
  TRACK 537 AUDIO
    TITLE "0:"
    INDEX 01 11:31:44
  TRACK 538 AUDIO
    TITLE "29:cjc135_6516"
    INDEX 01 11:32:45
  TRACK 539 AUDIO
    TITLE "0:"
    INDEX 01 11:33:70
  TRACK 540 AUDIO
    TITLE "30:cjc135_6517"
    INDEX 01 11:34:46
  TRACK 541 AUDIO
    TITLE "0:"
    INDEX 01 11:36:47
  TRACK 542 AUDIO
    TITLE "31:cjc135_6518"
    INDEX 01 11:36:72
  TRACK 543 AUDIO
    TITLE "0:"
    INDEX 01 11:39:02
  TRACK 544 AUDIO
    TITLE "32:cjc135_6519"
    INDEX 01 11:39:28
  TRACK 545 AUDIO
    TITLE "0:"
    INDEX 01 11:41:29
  TRACK 546 AUDIO
    TITLE "29:cjc135_6520"
    INDEX 01 11:42:34
  TRACK 547 AUDIO
    TITLE "0:"
    INDEX 01 11:43:47
  TRACK 548 AUDIO
    TITLE "30:cjc135_6521"
    INDEX 01 11:44:23
  TRACK 549 AUDIO
    TITLE "0:"
    INDEX 01 11:48:17
  TRACK 550 AUDIO
    TITLE "31:cjc135_6522"
    INDEX 01 11:48:42
  TRACK 551 AUDIO
    TITLE "0:"
    INDEX 01 11:51:21
  TRACK 552 AUDIO
    TITLE "32:cjc135_6523"
    INDEX 01 11:51:47
  TRACK 553 AUDIO
    TITLE "0:"
    INDEX 01 11:54:27
  TRACK 554 AUDIO
    TITLE "29:cjc135_6524"
    INDEX 01 11:55:27
  TRACK 555 AUDIO
    TITLE "0:"
    INDEX 01 11:56:28
  TRACK 556 AUDIO
    TITLE "30:cjc135_6525"
    INDEX 01 11:57:02
  TRACK 557 AUDIO
    TITLE "0:"
    INDEX 01 11:58:70
  TRACK 558 AUDIO
    TITLE "31:cjc135_6526"
    INDEX 01 11:59:21
  TRACK 559 AUDIO
    TITLE "0:"
    INDEX 01 12:01:27
  TRACK 560 AUDIO
    TITLE "32:cjc135_6527"
    INDEX 01 12:01:53
  TRACK 561 AUDIO
    TITLE "0:"
    INDEX 01 12:03:60
  TRACK 562 AUDIO
    TITLE "29:cjc135_6528"
    INDEX 01 12:04:59
  TRACK 563 AUDIO
    TITLE "0:"
    INDEX 01 12:06:11
  TRACK 564 AUDIO
    TITLE "30:cjc135_6529"
    INDEX 01 12:06:60
  TRACK 565 AUDIO
    TITLE "0:"
    INDEX 01 12:09:52
  TRACK 566 AUDIO
    TITLE "31:cjc135_6530"
    INDEX 01 12:10:03
  TRACK 567 AUDIO
    TITLE "0:"
    INDEX 01 12:13:13
  TRACK 568 AUDIO
    TITLE "32:cjc135_6531"
    INDEX 01 12:13:36
  TRACK 569 AUDIO
    TITLE "0:"
    INDEX 01 12:16:45
  TRACK 570 AUDIO
    TITLE "29:cjc135_6532"
    INDEX 01 12:17:48
  TRACK 571 AUDIO
    TITLE "0:"
    INDEX 01 12:18:57
  TRACK 572 AUDIO
    TITLE "30:cjc135_6533"
    INDEX 01 12:19:33
  TRACK 573 AUDIO
    TITLE "0:"
    INDEX 01 12:20:68
  TRACK 574 AUDIO
    TITLE "31:cjc135_6534"
    INDEX 01 12:21:16
  TRACK 575 AUDIO
    TITLE "0:"
    INDEX 01 12:22:59
  TRACK 576 AUDIO
    TITLE "32:cjc135_6535"
    INDEX 01 12:23:07
  TRACK 577 AUDIO
    TITLE "0:"
    INDEX 01 12:24:48
  TRACK 578 AUDIO
    TITLE "29:cjc135_6536"
    INDEX 01 12:25:47
  TRACK 579 AUDIO
    TITLE "0:"
    INDEX 01 12:26:55
  TRACK 580 AUDIO
    TITLE "30:cjc135_6537"
    INDEX 01 12:27:33
  TRACK 581 AUDIO
    TITLE "0:"
    INDEX 01 12:29:26
  TRACK 582 AUDIO
    TITLE "31:cjc135_6538"
    INDEX 01 12:29:55
  TRACK 583 AUDIO
    TITLE "0:"
    INDEX 01 12:31:30
  TRACK 584 AUDIO
    TITLE "32:cjc135_6539"
    INDEX 01 12:31:58
  TRACK 585 AUDIO
    TITLE "0:"
    INDEX 01 12:33:33
  TRACK 586 AUDIO
    TITLE "29:cjc135_6540"
    INDEX 01 12:34:37
  TRACK 587 AUDIO
    TITLE "0:"
    INDEX 01 12:35:38
  TRACK 588 AUDIO
    TITLE "30:cjc135_6541"
    INDEX 01 12:36:12
  TRACK 589 AUDIO
    TITLE "0:"
    INDEX 01 12:37:58
  TRACK 590 AUDIO
    TITLE "31:cjc135_6542"
    INDEX 01 12:38:09
  TRACK 591 AUDIO
    TITLE "0:"
    INDEX 01 12:39:65
  TRACK 592 AUDIO
    TITLE "32:cjc135_6543"
    INDEX 01 12:40:14
  TRACK 593 AUDIO
    TITLE "0:"
    INDEX 01 12:41:72
  TRACK 594 AUDIO
    TITLE "29:cjc135_6544"
    INDEX 01 12:42:69
  TRACK 595 AUDIO
    TITLE "0:"
    INDEX 01 12:44:04
  TRACK 596 AUDIO
    TITLE "30:cjc135_6545"
    INDEX 01 12:44:55
  TRACK 597 AUDIO
    TITLE "0:"
    INDEX 01 12:47:00
  TRACK 598 AUDIO
    TITLE "31:cjc135_6546"
    INDEX 01 12:47:26
  TRACK 599 AUDIO
    TITLE "0:"
    INDEX 01 12:49:38
  TRACK 600 AUDIO
    TITLE "32:cjc135_6547"
    INDEX 01 12:49:62
  TRACK 601 AUDIO
    TITLE "0:"
    INDEX 01 12:52:01
  TRACK 602 AUDIO
    TITLE "29:cjc135_6548"
    INDEX 01 12:53:01
  TRACK 603 AUDIO
    TITLE "0:"
    INDEX 01 12:54:24
  TRACK 604 AUDIO
    TITLE "30:cjc135_6549"
    INDEX 01 12:55:02
  TRACK 605 AUDIO
    TITLE "0:"
    INDEX 01 12:57:22
  TRACK 606 AUDIO
    TITLE "31:cjc135_6550"
    INDEX 01 12:57:44
  TRACK 607 AUDIO
    TITLE "0:"
    INDEX 01 12:59:58
  TRACK 608 AUDIO
    TITLE "32:cjc135_6551"
    INDEX 01 13:00:07
  TRACK 609 AUDIO
    TITLE "0:"
    INDEX 01 13:02:21
  TRACK 610 AUDIO
    TITLE "29:cjc135_6552"
    INDEX 01 13:03:21
  TRACK 611 AUDIO
    TITLE "0:"
    INDEX 01 13:04:32
  TRACK 612 AUDIO
    TITLE "30:cjc135_6553"
    INDEX 01 13:05:10
  TRACK 613 AUDIO
    TITLE "0:"
    INDEX 01 13:07:69
  TRACK 614 AUDIO
    TITLE "31:cjc135_6554"
    INDEX 01 13:08:20
  TRACK 615 AUDIO
    TITLE "0:"
    INDEX 01 13:10:58
  TRACK 616 AUDIO
    TITLE "32:cjc135_6555"
    INDEX 01 13:11:06
  TRACK 617 AUDIO
    TITLE "0:"
    INDEX 01 13:13:46
  TRACK 618 AUDIO
    TITLE "29:cjc135_6556"
    INDEX 01 13:14:46
  TRACK 619 AUDIO
    TITLE "0:"
    INDEX 01 13:15:53
  TRACK 620 AUDIO
    TITLE "30:cjc135_6557"
    INDEX 01 13:16:29
  TRACK 621 AUDIO
    TITLE "0:"
    INDEX 01 13:19:20
  TRACK 622 AUDIO
    TITLE "31:cjc135_6558"
    INDEX 01 13:19:47
  TRACK 623 AUDIO
    TITLE "0:"
    INDEX 01 13:22:16
  TRACK 624 AUDIO
    TITLE "32:cjc135_6559"
    INDEX 01 13:22:40
  TRACK 625 AUDIO
    TITLE "0:"
    INDEX 01 13:25:09
  TRACK 626 AUDIO
    TITLE "29:cjc135_6560"
    INDEX 01 13:26:08
  TRACK 627 AUDIO
    TITLE "0:"
    INDEX 01 13:27:07
  TRACK 628 AUDIO
    TITLE "30:cjc135_6561"
    INDEX 01 13:27:64
  TRACK 629 AUDIO
    TITLE "0:"
    INDEX 01 13:30:08
  TRACK 630 AUDIO
    TITLE "31:cjc135_6562"
    INDEX 01 13:30:31
  TRACK 631 AUDIO
    TITLE "0:"
    INDEX 01 13:32:67
  TRACK 632 AUDIO
    TITLE "32:cjc135_6563"
    INDEX 01 13:33:18
  TRACK 633 AUDIO
    TITLE "0:"
    INDEX 01 13:35:52
  TRACK 634 AUDIO
    TITLE "29:cjc135_6564"
    INDEX 01 13:36:57
  TRACK 635 AUDIO
    TITLE "0:"
    INDEX 01 13:37:70
  TRACK 636 AUDIO
    TITLE "30:cjc135_6565"
    INDEX 01 13:38:44
  TRACK 637 AUDIO
    TITLE "0:"
    INDEX 01 13:40:73
  TRACK 638 AUDIO
    TITLE "31:cjc135_6566"
    INDEX 01 13:41:29
  TRACK 639 AUDIO
    TITLE "0:"
    INDEX 01 13:44:00
  TRACK 640 AUDIO
    TITLE "32:cjc135_6567"
    INDEX 01 13:44:25
  TRACK 641 AUDIO
    TITLE "0:"
    INDEX 01 13:46:69
  TRACK 642 AUDIO
    TITLE "29:cjc135_6568"
    INDEX 01 13:47:69
  TRACK 643 AUDIO
    TITLE "0:"
    INDEX 01 13:49:13
  TRACK 644 AUDIO
    TITLE "30:cjc135_6569"
    INDEX 01 13:49:62
  TRACK 645 AUDIO
    TITLE "0:"
    INDEX 01 13:52:50
  TRACK 646 AUDIO
    TITLE "31:cjc135_6570"
    INDEX 01 13:53:01
  TRACK 647 AUDIO
    TITLE "0:"
    INDEX 01 13:55:47
  TRACK 648 AUDIO
    TITLE "32:cjc135_6571"
    INDEX 01 13:55:72
  TRACK 649 AUDIO
    TITLE "0:"
    INDEX 01 13:58:45
  TRACK 650 AUDIO
    TITLE "29:cjc135_6572"
    INDEX 01 13:59:45
  TRACK 651 AUDIO
    TITLE "0:"
    INDEX 01 14:00:56
  TRACK 652 AUDIO
    TITLE "30:cjc135_6573"
    INDEX 01 14:01:30
  TRACK 653 AUDIO
    TITLE "0:"
    INDEX 01 14:03:72
  TRACK 654 AUDIO
    TITLE "31:cjc135_6574"
    INDEX 01 14:04:22
  TRACK 655 AUDIO
    TITLE "0:"
    INDEX 01 14:06:39
  TRACK 656 AUDIO
    TITLE "32:cjc135_6575"
    INDEX 01 14:06:62
  TRACK 657 AUDIO
    TITLE "0:"
    INDEX 01 14:09:04
  TRACK 658 AUDIO
    TITLE "29:cjc135_6576"
    INDEX 01 14:10:01
  TRACK 659 AUDIO
    TITLE "0:"
    INDEX 01 14:11:01
  TRACK 660 AUDIO
    TITLE "30:cjc135_6577"
    INDEX 01 14:11:50
  TRACK 661 AUDIO
    TITLE "0:"
    INDEX 01 14:14:40
  TRACK 662 AUDIO
    TITLE "31:cjc135_6578"
    INDEX 01 14:14:70
  TRACK 663 AUDIO
    TITLE "0:"
    INDEX 01 14:17:21
  TRACK 664 AUDIO
    TITLE "32:cjc135_6579"
    INDEX 01 14:17:45
  TRACK 665 AUDIO
    TITLE "0:"
    INDEX 01 14:19:71
  TRACK 666 AUDIO
    TITLE "29:cjc135_6580"
    INDEX 01 14:20:70
  TRACK 667 AUDIO
    TITLE "0:"
    INDEX 01 14:22:22
  TRACK 668 AUDIO
    TITLE "30:cjc135_6581"
    INDEX 01 14:22:73
  TRACK 669 AUDIO
    TITLE "0:"
    INDEX 01 14:25:48
  TRACK 670 AUDIO
    TITLE "31:cjc135_6582"
    INDEX 01 14:25:71
  TRACK 671 AUDIO
    TITLE "0:"
    INDEX 01 14:28:38
  TRACK 672 AUDIO
    TITLE "32:cjc135_6583"
    INDEX 01 14:28:62
  TRACK 673 AUDIO
    TITLE "0:"
    INDEX 01 14:31:27
  TRACK 674 AUDIO
    TITLE "29:cjc135_6584"
    INDEX 01 14:32:26
  TRACK 675 AUDIO
    TITLE "0:"
    INDEX 01 14:33:30
  TRACK 676 AUDIO
    TITLE "30:cjc135_6585"
    INDEX 01 14:34:06
  TRACK 677 AUDIO
    TITLE "0:"
    INDEX 01 14:37:37
  TRACK 678 AUDIO
    TITLE "31:cjc135_6586"
    INDEX 01 14:37:63
  TRACK 679 AUDIO
    TITLE "0:"
    INDEX 01 14:40:59
  TRACK 680 AUDIO
    TITLE "32:cjc135_6587"
    INDEX 01 14:41:08
  TRACK 681 AUDIO
    TITLE "0:"
    INDEX 01 14:44:04
  TRACK 682 AUDIO
    TITLE "29:cjc135_6588"
    INDEX 01 14:45:04
  TRACK 683 AUDIO
    TITLE "0:"
    INDEX 01 14:46:23
  TRACK 684 AUDIO
    TITLE "30:cjc135_6589"
    INDEX 01 14:47:01
  TRACK 685 AUDIO
    TITLE "0:"
    INDEX 01 14:48:69
  TRACK 686 AUDIO
    TITLE "31:cjc135_6590"
    INDEX 01 14:49:23
  TRACK 687 AUDIO
    TITLE "0:"
    INDEX 01 14:51:10
  TRACK 688 AUDIO
    TITLE "32:cjc135_6591"
    INDEX 01 14:51:36
  TRACK 689 AUDIO
    TITLE "0:"
    INDEX 01 14:53:23
  TRACK 690 AUDIO
    TITLE "29:cjc135_6592"
    INDEX 01 14:54:22
  TRACK 691 AUDIO
    TITLE "0:"
    INDEX 01 14:55:43
  TRACK 692 AUDIO
    TITLE "30:cjc135_6593"
    INDEX 01 14:56:23
  TRACK 693 AUDIO
    TITLE "0:"
    INDEX 01 14:57:60
  TRACK 694 AUDIO
    TITLE "31:cjc135_6594"
    INDEX 01 14:58:10
  TRACK 695 AUDIO
    TITLE "0:"
    INDEX 01 15:00:15
  TRACK 696 AUDIO
    TITLE "32:cjc135_6595"
    INDEX 01 15:00:40
  TRACK 697 AUDIO
    TITLE "0:"
    INDEX 01 15:02:45
  TRACK 698 AUDIO
    TITLE "29:cjc135_6596"
    INDEX 01 15:03:45
  TRACK 699 AUDIO
    TITLE "0:"
    INDEX 01 15:04:48
  TRACK 700 AUDIO
    TITLE "30:cjc135_6597"
    INDEX 01 15:05:22
  TRACK 701 AUDIO
    TITLE "0:"
    INDEX 01 15:06:61
  TRACK 702 AUDIO
    TITLE "31:cjc135_6598"
    INDEX 01 15:07:13
  TRACK 703 AUDIO
    TITLE "0:"
    INDEX 01 15:08:56
  TRACK 704 AUDIO
    TITLE "32:cjc135_6599"
    INDEX 01 15:09:08
  TRACK 705 AUDIO
    TITLE "0:"
    INDEX 01 15:10:51
  TRACK 706 AUDIO
    TITLE "29:cjc135_6600"
    INDEX 01 15:11:52
  TRACK 707 AUDIO
    TITLE "0:"
    INDEX 01 15:12:71
  TRACK 708 AUDIO
    TITLE "30:cjc135_6601"
    INDEX 01 15:13:47
  TRACK 709 AUDIO
    TITLE "0:"
    INDEX 01 15:15:28
  TRACK 710 AUDIO
    TITLE "31:cjc135_6602"
    INDEX 01 15:15:52
  TRACK 711 AUDIO
    TITLE "0:"
    INDEX 01 15:17:51
  TRACK 712 AUDIO
    TITLE "32:cjc135_6603"
    INDEX 01 15:18:05
  TRACK 713 AUDIO
    TITLE "0:"
    INDEX 01 15:20:06
  TRACK 714 AUDIO
    TITLE "29:cjc135_6604"
    INDEX 01 15:21:07
  TRACK 715 AUDIO
    TITLE "0:"
    INDEX 01 15:22:15
  TRACK 716 AUDIO
    TITLE "30:cjc135_6605"
    INDEX 01 15:22:67
  TRACK 717 AUDIO
    TITLE "0:"
    INDEX 01 15:26:40
  TRACK 718 AUDIO
    TITLE "31:cjc135_6606"
    INDEX 01 15:26:65
  TRACK 719 AUDIO
    TITLE "0:"
    INDEX 01 15:30:24
  TRACK 720 AUDIO
    TITLE "32:cjc135_6607"
    INDEX 01 15:30:49
  TRACK 721 AUDIO
    TITLE "0:"
    INDEX 01 15:34:10
  TRACK 722 AUDIO
    TITLE "29:cjc135_6608"
    INDEX 01 15:35:09
  TRACK 723 AUDIO
    TITLE "0:"
    INDEX 01 15:36:15
  TRACK 724 AUDIO
    TITLE "30:cjc135_6609"
    INDEX 01 15:36:68
  TRACK 725 AUDIO
    TITLE "0:"
    INDEX 01 15:41:43
  TRACK 726 AUDIO
    TITLE "31:cjc135_6610"
    INDEX 01 15:41:69
  TRACK 727 AUDIO
    TITLE "0:"
    INDEX 01 15:45:18
  TRACK 728 AUDIO
    TITLE "32:cjc135_6611"
    INDEX 01 15:45:45
  TRACK 729 AUDIO
    TITLE "0:"
    INDEX 01 15:48:73
  TRACK 730 AUDIO
    TITLE "29:cjc135_6612"
    INDEX 01 15:49:72
  TRACK 731 AUDIO
    TITLE "0:"
    INDEX 01 15:50:72
  TRACK 732 AUDIO
    TITLE "30:cjc135_6613"
    INDEX 01 15:51:50
  TRACK 733 AUDIO
    TITLE "0:"
    INDEX 01 15:53:48
  TRACK 734 AUDIO
    TITLE "31:cjc135_6614"
    INDEX 01 15:53:74
  TRACK 735 AUDIO
    TITLE "0:"
    INDEX 01 15:55:55
  TRACK 736 AUDIO
    TITLE "32:cjc135_6615"
    INDEX 01 15:56:06
  TRACK 737 AUDIO
    TITLE "0:"
    INDEX 01 15:57:60
  TRACK 738 AUDIO
    TITLE "29:cjc135_6616"
    INDEX 01 15:58:59
  TRACK 739 AUDIO
    TITLE "0:"
    INDEX 01 16:00:03
  TRACK 740 AUDIO
    TITLE "30:cjc135_6617"
    INDEX 01 16:00:52
  TRACK 741 AUDIO
    TITLE "0:"
    INDEX 01 16:02:32
  TRACK 742 AUDIO
    TITLE "31:cjc135_6618"
    INDEX 01 16:02:61
  TRACK 743 AUDIO
    TITLE "0:"
    INDEX 01 16:04:40
  TRACK 744 AUDIO
    TITLE "32:cjc135_6619"
    INDEX 01 16:04:68
  TRACK 745 AUDIO
    TITLE "0:"
    INDEX 01 16:06:47
  TRACK 746 AUDIO
    TITLE "29:cjc135_6620"
    INDEX 01 16:07:47
  TRACK 747 AUDIO
    TITLE "0:"
    INDEX 01 16:08:68
  TRACK 748 AUDIO
    TITLE "30:cjc135_6621"
    INDEX 01 16:09:45
  TRACK 749 AUDIO
    TITLE "0:"
    INDEX 01 16:11:62
  TRACK 750 AUDIO
    TITLE "31:cjc135_6622"
    INDEX 01 16:12:12
  TRACK 751 AUDIO
    TITLE "0:"
    INDEX 01 16:14:15
  TRACK 752 AUDIO
    TITLE "32:cjc135_6623"
    INDEX 01 16:14:39
  TRACK 753 AUDIO
    TITLE "0:"
    INDEX 01 16:16:42
  TRACK 754 AUDIO
    TITLE "29:cjc135_6624"
    INDEX 01 16:17:43
  TRACK 755 AUDIO
    TITLE "0:"
    INDEX 01 16:18:68
  TRACK 756 AUDIO
    TITLE "30:cjc135_6625"
    INDEX 01 16:19:42
  TRACK 757 AUDIO
    TITLE "0:"
    INDEX 01 16:21:31
  TRACK 758 AUDIO
    TITLE "31:cjc135_6626"
    INDEX 01 16:21:55
  TRACK 759 AUDIO
    TITLE "0:"
    INDEX 01 16:23:48
  TRACK 760 AUDIO
    TITLE "32:cjc135_6627"
    INDEX 01 16:24:00
  TRACK 761 AUDIO
    TITLE "0:"
    INDEX 01 16:25:70
  TRACK 762 AUDIO
    TITLE "29:cjc135_6628"
    INDEX 01 16:26:69
  TRACK 763 AUDIO
    TITLE "0:"
    INDEX 01 16:28:27
  TRACK 764 AUDIO
    TITLE "30:cjc135_6629"
    INDEX 01 16:29:03
  TRACK 765 AUDIO
    TITLE "0:"
    INDEX 01 16:30:40
  TRACK 766 AUDIO
    TITLE "31:cjc135_6630"
    INDEX 01 16:30:67
  TRACK 767 AUDIO
    TITLE "0:"
    INDEX 01 16:32:52
  TRACK 768 AUDIO
    TITLE "32:cjc135_6631"
    INDEX 01 16:33:03
  TRACK 769 AUDIO
    TITLE "0:"
    INDEX 01 16:34:63
  TRACK 770 AUDIO
    TITLE "29:cjc135_6632"
    INDEX 01 16:35:63
  TRACK 771 AUDIO
    TITLE "0:"
    INDEX 01 16:37:05
  TRACK 772 AUDIO
    TITLE "30:cjc135_6633"
    INDEX 01 16:37:57
  TRACK 773 AUDIO
    TITLE "0:"
    INDEX 01 16:40:05
  TRACK 774 AUDIO
    TITLE "31:cjc135_6634"
    INDEX 01 16:40:30
  TRACK 775 AUDIO
    TITLE "0:"
    INDEX 01 16:42:37
  TRACK 776 AUDIO
    TITLE "32:cjc135_6635"
    INDEX 01 16:42:63
  TRACK 777 AUDIO
    TITLE "0:"
    INDEX 01 16:44:69
  TRACK 778 AUDIO
    TITLE "29:cjc135_6636"
    INDEX 01 16:45:69
  TRACK 779 AUDIO
    TITLE "0:"
    INDEX 01 16:47:13
  TRACK 780 AUDIO
    TITLE "30:cjc135_6637"
    INDEX 01 16:47:60
  TRACK 781 AUDIO
    TITLE "0:"
    INDEX 01 16:50:27
  TRACK 782 AUDIO
    TITLE "31:cjc135_6638"
    INDEX 01 16:50:52
  TRACK 783 AUDIO
    TITLE "0:"
    INDEX 01 16:52:61
  TRACK 784 AUDIO
    TITLE "32:cjc135_6639"
    INDEX 01 16:53:11
  TRACK 785 AUDIO
    TITLE "0:"
    INDEX 01 16:55:22
  TRACK 786 AUDIO
    TITLE "29:cjc135_6640"
    INDEX 01 16:56:22
  TRACK 787 AUDIO
    TITLE "0:"
    INDEX 01 16:57:35
  TRACK 788 AUDIO
    TITLE "30:cjc135_6641"
    INDEX 01 16:58:09
  TRACK 789 AUDIO
    TITLE "0:"
    INDEX 01 16:59:53
  TRACK 790 AUDIO
    TITLE "31:cjc135_6642"
    INDEX 01 17:00:06
  TRACK 791 AUDIO
    TITLE "0:"
    INDEX 01 17:02:03
  TRACK 792 AUDIO
    TITLE "32:cjc135_6643"
    INDEX 01 17:02:30
  TRACK 793 AUDIO
    TITLE "0:"
    INDEX 01 17:04:31
  TRACK 794 AUDIO
    TITLE "29:cjc135_6644"
    INDEX 01 17:05:30
  TRACK 795 AUDIO
    TITLE "0:"
    INDEX 01 17:06:49
  TRACK 796 AUDIO
    TITLE "30:cjc135_6645"
    INDEX 01 17:07:25
  TRACK 797 AUDIO
    TITLE "0:"
    INDEX 01 17:09:61
  TRACK 798 AUDIO
    TITLE "31:cjc135_6646"
    INDEX 01 17:10:10
  TRACK 799 AUDIO
    TITLE "0:"
    INDEX 01 17:12:32
  TRACK 800 AUDIO
    TITLE "32:cjc135_6647"
    INDEX 01 17:12:60
  TRACK 801 AUDIO
    TITLE "0:"
    INDEX 01 17:15:07
